# Blender v2.82 (sub 7) OBJ File: ''
# www.blender.org
mtllib cash register obj.mtl
o cash_register_Mesh
v -0.127033 0.025651 0.028284
v -0.127033 0.130601 0.028284
v -0.127033 0.025651 -0.207253
v -0.127033 0.130601 -0.207253
v -0.134597 0.025651 0.028284
v -0.134597 0.130601 0.028284
v -0.134597 0.025651 -0.207253
v -0.134597 0.130601 -0.207253
v 0.122094 0.025651 0.028284
v 0.122094 0.130601 0.028284
v 0.122094 0.025651 -0.207253
v 0.122094 0.130601 -0.207253
v 0.114530 0.025651 0.028284
v 0.114530 0.130601 0.028284
v 0.114530 0.025651 -0.207253
v 0.114530 0.130601 -0.207253
v 0.271261 0.000158 0.028284
v 0.271261 0.156094 0.028284
v -0.289019 0.000158 0.028284
v -0.289019 0.156094 0.028284
v 0.227603 0.000158 0.425521
v 0.260346 0.000158 0.392777
v 0.260346 0.156094 0.392777
v 0.227603 0.156094 0.425521
v -0.289019 0.000158 0.276268
v -0.289019 0.156094 0.276269
v 0.271261 0.156094 0.276269
v 0.271261 0.000158 0.276268
v 0.245768 0.025651 0.028284
v 0.245768 0.130601 0.028284
v -0.263526 0.025651 0.028284
v -0.263526 0.130601 0.028284
v -0.289019 0.000158 0.350992
v -0.203576 0.000158 0.436435
v -0.203576 0.156094 0.436435
v -0.289019 0.156094 0.350992
v 0.185818 0.000158 0.436435
v 0.271261 0.000158 0.350992
v 0.271261 0.156094 0.350992
v 0.185818 0.156094 0.436435
v -0.245361 0.000158 0.425521
v -0.278105 0.000158 0.392777
v -0.278105 0.156094 0.392777
v -0.245361 0.156094 0.425521
v -0.191202 0.156094 0.436435
v 0.173443 0.156094 0.436435
v -0.191202 0.156094 0.276269
v 0.173443 0.156094 0.276269
v -0.191202 0.426133 0.436435
v 0.173443 0.426133 0.436435
v -0.191202 0.426133 0.276269
v 0.173443 0.426133 0.276269
v -0.191202 0.327223 0.436435
v -0.191202 0.327223 0.276269
v 0.173443 0.327223 0.276269
v 0.173443 0.327223 0.436435
v -0.191202 0.354145 0.145526
v 0.173443 0.354145 0.145526
v -0.191202 0.327223 0.145526
v 0.173443 0.327223 0.145526
v -0.191202 0.156094 0.387531
v -0.191202 0.327223 0.387531
v -0.191202 0.426133 0.387531
v 0.173443 0.426133 0.387531
v 0.173443 0.327223 0.387531
v 0.173443 0.156094 0.387531
v -0.191202 0.447830 0.436435
v 0.173443 0.447830 0.436435
v -0.191202 0.447830 0.387531
v 0.173443 0.447830 0.387531
v -0.191202 0.156094 0.295477
v -0.191202 0.327223 0.295477
v -0.191202 0.426133 0.295477
v 0.173443 0.426133 0.295477
v 0.173443 0.327223 0.295477
v 0.173443 0.156094 0.295477
v -0.191202 0.434442 0.276269
v 0.173443 0.434442 0.276269
v -0.191202 0.434442 0.295477
v 0.173443 0.434442 0.295477
v -0.033743 0.426133 0.352855
v 0.015985 0.426133 0.352855
v -0.033743 0.426133 0.330154
v 0.015985 0.426133 0.330154
v -0.033743 0.475816 0.352855
v 0.015985 0.475816 0.352855
v -0.033743 0.475816 0.330154
v 0.015985 0.475816 0.330154
v -0.120125 0.475816 0.346805
v 0.102367 0.475816 0.346805
v -0.120125 0.475816 0.336203
v 0.102367 0.475816 0.336203
v -0.120125 0.625971 0.346805
v 0.102367 0.625971 0.346805
v -0.120125 0.625971 0.336203
v 0.102367 0.625971 0.336203
v -0.105774 0.485501 0.336203
v 0.088016 0.485501 0.336203
v -0.105774 0.616286 0.336203
v 0.088016 0.616286 0.336203
v -0.105774 0.485501 0.340404
v 0.088016 0.485501 0.340404
v -0.105774 0.616286 0.340404
v 0.088016 0.616286 0.340404
v 0.245768 0.025651 0.028284
v 0.245768 0.130601 0.028284
v -0.263526 0.025651 0.028284
v -0.263526 0.130601 0.028284
v 0.245768 0.025651 -0.207253
v 0.245768 0.130601 -0.207253
v -0.263526 0.025651 -0.207253
v -0.263526 0.130601 -0.207253
v 0.253892 0.017527 0.028284
v 0.253892 0.130601 0.028284
v -0.271650 0.017527 0.028284
v -0.271650 0.130601 0.028284
v 0.253892 0.017527 -0.215377
v 0.253892 0.130601 -0.215377
v -0.271650 0.017527 -0.215377
v -0.271650 0.130601 -0.215377
v -0.005673 0.025651 0.028284
v -0.005673 0.130601 0.028284
v -0.005673 0.025651 -0.207253
v -0.005673 0.130601 -0.207253
v -0.013237 0.025651 0.028284
v -0.013237 0.130601 0.028284
v -0.013237 0.025651 -0.207253
v -0.013237 0.130601 -0.207253
vt 0.121663 0.418645
vt 0.105831 0.402819
vt 0.100550 0.382621
vt 0.100507 0.194378
vt 0.105778 0.174176
vt 0.121604 0.158344
vt 0.141802 0.153063
vt 0.177926 0.153054
vt 0.177988 0.423908
vt 0.141865 0.423916
vt 0.493073 0.152982
vt 0.529196 0.152974
vt 0.549397 0.158246
vt 0.565230 0.174071
vt 0.570511 0.194270
vt 0.570554 0.382513
vt 0.565282 0.402714
vt 0.549457 0.418547
vt 0.529258 0.423828
vt 0.493135 0.423836
vt 0.878529 0.353999
vt 0.941477 0.354119
vt 0.941208 0.495391
vt 0.878260 0.495271
vt 0.810776 0.495143
vt 0.811045 0.353870
vt 0.873993 0.353990
vt 0.873724 0.495263
vt 0.941486 0.349582
vt 0.878538 0.349462
vt 0.945745 0.495400
vt 0.946014 0.354127
vt 0.878252 0.499808
vt 0.941200 0.499928
vt 0.657272 0.188949
vt 0.716808 0.189062
vt 0.716554 0.322677
vt 0.657018 0.322564
vt 0.593192 0.322442
vt 0.593446 0.188828
vt 0.652982 0.188941
vt 0.652727 0.322555
vt 0.716816 0.184772
vt 0.657281 0.184658
vt 0.720845 0.322685
vt 0.721099 0.189071
vt 0.657010 0.326854
vt 0.716546 0.326967
vt 0.310134 0.165348
vt 0.360870 0.165336
vt 0.360926 0.411542
vt 0.310191 0.411554
vt 0.220385 0.067113
vt 0.220713 0.142494
vt 0.100834 0.143015
vt 0.100507 0.067633
vt 0.320648 0.066677
vt 0.508890 0.065859
vt 0.509217 0.141242
vt 0.320975 0.142059
vt 0.573030 0.065580
vt 0.609154 0.065423
vt 0.609481 0.140806
vt 0.573358 0.140963
vt 0.373191 0.153010
vt 0.373253 0.423863
vt 0.256508 0.066956
vt 0.256835 0.142337
vt 0.729036 0.064902
vt 0.729364 0.140285
vt 0.297808 0.153027
vt 0.297870 0.423880
vt 0.277385 0.066865
vt 0.277712 0.142247
vt 0.552480 0.141054
vt 0.552153 0.065671
vt 0.299770 0.066767
vt 0.300098 0.142150
vt 0.530095 0.141151
vt 0.529767 0.065768
vt 0.335619 0.574545
vt 0.344904 0.574543
vt 0.344945 0.750821
vt 0.335659 0.750823
vt 0.438099 0.818944
vt 0.485916 0.818933
vt 0.485918 0.828219
vt 0.438102 0.828230
vt 0.438042 0.574520
vt 0.485857 0.574509
vt 0.485900 0.750789
vt 0.438083 0.750800
vt 0.438036 0.550879
vt 0.485851 0.550867
vt 0.259492 0.750840
vt 0.246477 0.750842
vt 0.246437 0.574566
vt 0.259451 0.574563
vt 0.568580 0.550847
vt 0.568586 0.574489
vt 0.183274 0.750857
vt 0.100547 0.750875
vt 0.100507 0.574600
vt 0.183233 0.574580
vt 0.568645 0.818913
vt 0.568647 0.828199
vt 0.568629 0.750769
vt 0.485822 0.433876
vt 0.485838 0.497080
vt 0.438022 0.497092
vt 0.472807 0.433879
vt 0.472918 0.891427
vt 0.485933 0.891424
vt 0.331602 0.574546
vt 0.331643 0.750823
vt 0.485840 0.506366
vt 0.568569 0.506345
vt 0.438025 0.506378
vt 0.403911 0.574529
vt 0.427552 0.574523
vt 0.427594 0.750803
vt 0.403952 0.750808
vt 0.438089 0.774442
vt 0.485905 0.774431
vt 0.568634 0.774411
vt 0.427599 0.774445
vt 0.427547 0.550882
vt 0.393463 0.750810
vt 0.393422 0.574531
vt 0.568567 0.497059
vt 0.348921 0.574542
vt 0.348962 0.750820
vt 0.434083 0.818945
vt 0.434085 0.828231
vt 0.434006 0.497093
vt 0.434008 0.506379
vt 0.269397 0.873697
vt 0.236676 0.873255
vt 0.237643 0.801578
vt 0.270364 0.802019
vt 0.270805 0.769298
vt 0.342418 0.770264
vt 0.341977 0.802985
vt 0.165063 0.872289
vt 0.166030 0.800612
vt 0.236234 0.905977
vt 0.164622 0.905010
vt 0.341010 0.874663
vt 0.861733 0.322787
vt 0.861970 0.186178
vt 0.868480 0.186190
vt 0.868243 0.322798
vt 0.763267 0.186007
vt 0.769776 0.186019
vt 0.769539 0.322627
vt 0.763030 0.322616
vt 0.861722 0.329296
vt 0.769528 0.329136
vt 0.769787 0.179509
vt 0.861982 0.179669
vt 0.598063 0.529898
vt 0.598093 0.419674
vt 0.761417 0.419719
vt 0.761387 0.529942
vt 0.874411 0.195011
vt 0.960675 0.186352
vt 0.954713 0.195153
vt 0.874205 0.313998
vt 0.954505 0.314141
vt 0.960436 0.322963
vt 0.764957 0.419720
vt 0.764927 0.529944
vt 0.598094 0.416134
vt 0.761418 0.416179
vt 0.594523 0.529897
vt 0.594553 0.419673
vt 0.761386 0.533482
vt 0.598062 0.533438
vt 0.875471 0.707751
vt 0.629265 0.707379
vt 0.629342 0.656643
vt 0.875548 0.657016
vt 0.875720 0.543151
vt 0.926456 0.543228
vt 0.926283 0.657093
vt 0.629515 0.542779
vt 0.578779 0.542702
vt 0.578607 0.656566
vt 0.633751 0.772373
vt 0.633974 0.717711
vt 0.888033 0.718750
vt 0.887809 0.773412
vt 0.942472 0.773636
vt 0.941990 0.891427
vt 0.887328 0.891203
vt 0.633269 0.890165
vt 0.578607 0.889941
vt 0.579088 0.772150
vt 0.096306 0.933111
vt 0.104626 0.924869
vt 0.623476 0.927304
vt 0.631717 0.935623
vt 0.086032 0.450577
vt 0.074660 0.450528
vt 0.075286 0.303619
vt 0.086706 0.292295
vt 0.084576 0.791647
vt 0.073253 0.780226
vt 0.631716 0.959388
vt 0.623392 0.967626
vt 0.104544 0.964941
vt 0.096306 0.956618
vt 0.032316 0.450574
vt 0.043688 0.450630
vt 0.042060 0.780330
vt 0.030632 0.791646
vt 0.033099 0.292295
vt 0.044414 0.303724
vt 0.932271 0.088402
vt 0.931944 0.152395
vt 0.788325 0.151662
vt 0.788652 0.087668
vt 0.789002 0.019063
vt 0.932621 0.019796
vt 0.932295 0.083789
vt 0.788675 0.083056
vt 0.936556 0.152419
vt 0.936883 0.088425
vt 0.788302 0.156274
vt 0.931921 0.157007
vt 0.784040 0.087644
vt 0.783713 0.151638
vn 0.0000 -1.0000 -0.0000
vn 0.0000 1.0000 0.0000
vn 1.0000 0.0000 0.0000
vn -1.0000 0.0000 0.0000
vn 0.0000 -0.0000 1.0000
vn 0.0000 0.0000 -1.0000
vn -0.1274 -0.0000 0.9919
vn 0.1274 -0.0000 0.9919
vn 0.9919 0.0000 0.1274
vn -0.9919 0.0000 0.1274
vn -0.8676 -0.0000 0.4973
vn 0.8676 -0.0000 0.4973
vn -0.4973 -0.0000 0.8676
vn 0.4973 -0.0000 0.8676
vn 0.0000 0.8760 -0.4823
usemtl Material.001
s 1
f 22/1/1 21/2/1 37/3/1 34/4/1 41/5/1 42/6/1 33/7/1 25/8/1 28/9/1 38/10/1
f 26/11/2 36/12/2 43/13/2 44/14/2 35/15/2 40/16/2 24/17/2 23/18/2 39/19/2 27/20/2
f 2/21/3 1/22/3 3/23/3 4/24/3
f 7/25/4 5/26/4 6/27/4 8/28/4
f 6/27/2 2/21/2 4/24/2 8/28/2
f 5/29/5 1/22/5 2/21/5 6/30/5
f 7/31/1 3/23/1 1/22/1 5/32/1
f 8/33/6 4/24/6 3/23/6 7/34/6
f 10/35/3 9/36/3 11/37/3 12/38/3
f 15/39/4 13/40/4 14/41/4 16/42/4
f 14/41/2 10/35/2 12/38/2 16/42/2
f 13/43/5 9/36/5 10/35/5 14/44/5
f 15/45/1 11/37/1 9/36/1 13/46/1
f 16/47/6 12/38/6 11/37/6 15/48/6
f 31/49/6 32/50/6 30/51/6 29/52/6
f 25/53/4 26/54/4 20/55/4 19/56/4
f 34/57/7 37/58/8 40/59/8 35/60/7
f 38/61/9 28/62/3 27/63/3 39/64/9
f 20/65/2 26/11/2 27/20/2 18/66/2
f 25/53/4 33/67/10 36/68/10 26/54/4
f 28/62/3 17/69/3 18/70/3 27/63/3
f 25/8/1 19/71/1 17/72/1 28/9/1
f 30/51/6 18/66/6 17/72/6 29/52/6
f 32/50/6 20/65/6 18/66/6 30/51/6
f 31/49/6 19/71/6 20/65/6 32/50/6
f 29/52/6 17/72/6 19/71/6 31/49/6
f 42/73/11 43/74/11 36/68/10 33/67/10
f 23/75/12 22/76/12 38/61/9 39/64/9
f 42/73/11 41/77/13 44/78/13 43/74/11
f 41/77/13 34/57/7 35/60/7 44/78/13
f 23/75/12 24/79/14 21/80/14 22/76/12
f 24/79/14 40/59/8 37/58/8 21/80/14
f 77/81/2 79/82/2 80/83/2 78/84/2
f 74/85/3 75/86/3 55/87/3 52/88/3
f 49/89/5 53/90/5 56/91/5 50/92/5
f 63/93/4 62/94/4 53/90/4 49/89/4
f 58/95/6 60/96/6 59/97/6 57/98/6
f 62/94/4 61/99/4 45/100/4 53/90/4
f 55/101/6 48/102/6 47/103/6 54/104/6
f 75/86/3 76/105/3 48/106/3 55/87/3
f 53/90/5 45/100/5 46/107/5 56/91/5
f 59/108/4 54/109/4 51/110/4 57/111/4
f 60/96/1 55/101/1 54/104/1 59/97/1
f 58/112/3 52/88/3 55/87/3 60/113/3
f 57/98/15 51/114/15 52/115/15 58/95/15
f 62/94/4 72/116/4 71/117/4 61/99/4
f 63/93/4 73/118/4 72/116/4 62/94/4
f 69/119/2 67/120/2 68/121/2 70/122/2
f 64/123/3 50/92/3 56/91/3 65/124/3
f 65/124/3 56/91/3 46/107/3 66/125/3
f 68/121/3 50/92/3 64/123/3 70/126/3
f 67/120/5 49/89/5 50/92/5 68/121/5
f 69/127/4 63/93/4 49/89/4 67/120/4
f 70/122/6 64/128/6 63/129/6 69/119/6
f 72/116/4 54/109/4 47/130/4 71/117/4
f 73/118/4 51/110/4 54/109/4 72/116/4
f 73/131/2 63/129/2 64/128/2 74/132/2
f 74/85/3 64/123/3 65/124/3 75/86/3
f 75/86/3 65/124/3 66/125/3 76/105/3
f 80/133/3 74/85/3 52/88/3 78/134/3
f 79/82/5 73/131/5 74/132/5 80/83/5
f 77/135/4 51/110/4 73/118/4 79/136/4
f 78/84/6 52/115/6 51/114/6 77/81/6
f 87/137/2 85/138/2 86/139/2 88/140/2
f 86/141/3 82/142/3 84/143/3 88/140/3
f 85/138/5 81/144/5 82/145/5 86/139/5
f 87/146/4 83/147/4 81/144/4 85/138/4
f 88/140/6 84/143/6 83/148/6 87/137/6
f 90/149/1 89/150/1 91/151/1 92/152/1
f 95/153/2 93/154/2 94/155/2 96/156/2
f 94/155/3 90/149/3 92/157/3 96/158/3
f 93/154/5 89/150/5 90/149/5 94/155/5
f 95/159/4 91/160/4 89/150/4 93/154/4
f 104/161/6 102/162/6 101/163/6 103/164/6
f 97/165/6 91/151/6 95/166/6 99/167/6
f 98/168/6 92/152/6 91/151/6 97/165/6
f 100/169/6 96/170/6 92/152/6 98/168/6
f 99/167/6 95/166/6 96/170/6 100/169/6
f 101/163/3 97/171/3 99/172/3 103/164/3
f 102/162/2 98/173/2 97/174/2 101/163/2
f 104/161/4 100/175/4 98/176/4 102/162/4
f 103/164/1 99/177/1 100/178/1 104/161/1
f 110/179/5 112/180/5 111/181/5 109/182/5
f 105/183/4 106/184/4 110/185/4 109/182/4
f 107/186/2 105/183/2 109/182/2 111/181/2
f 108/187/3 107/186/3 111/181/3 112/188/3
f 119/189/6 120/190/6 118/191/6 117/192/6
f 118/193/3 114/194/3 113/195/3 117/192/3
f 117/192/1 113/195/1 115/196/1 119/189/1
f 119/189/4 115/196/4 116/197/4 120/198/4
f 120/199/2 112/200/2 110/201/2 118/202/2
f 114/203/5 106/204/5 105/205/5 113/206/5
f 118/207/2 110/208/2 106/204/2 114/203/2
f 113/209/5 105/210/5 107/211/5 115/212/5
f 116/213/2 108/214/2 112/215/2 120/216/2
f 115/217/5 107/218/5 108/214/5 116/213/5
f 122/219/3 121/220/3 123/221/3 124/222/3
f 127/223/4 125/224/4 126/225/4 128/226/4
f 126/225/2 122/219/2 124/222/2 128/226/2
f 125/227/5 121/220/5 122/219/5 126/228/5
f 127/229/1 123/221/1 121/220/1 125/230/1
f 128/231/6 124/222/6 123/221/6 127/232/6
